<svg xmlns="http://www.w3.org/2000/svg" width="411" height="792">
  <path fill="#6D4D42" d="M40.1 659.5c0 15.1 12.9 28 28 28h157.3c15.1 0 28-12.9 28-28V569c0-15.1-12.9-28-28-28H68.1c-15.1 0-28 12.9-28 28v90.5z"/>
  <path fill="#8BC34A" d="M123 312.5l93.7-44.2s8.6 7.5 23.7 7.5 22.6-8.6 22.6-8.6l80.8 49.6c4.3 3.2 7.5 7.5 9.7 11.9 18.3 64.7 33.4 102.4 55 205.8l-44.2 18.3S318 382.5 321.2 369.6c0 0-24.8 144.4-24.8 164.9l5.4 53.9v60.3l-147.6-6.5-5.4-59.3V369.6s-31.2 149.8-39.9 169.2c-6.5 3.2-47.4 0-47.4 0 17.2-74.4 40.9-189.6 58.2-223.1-1 0 .1-2.1 3.3-3.2z"/>
  <path fill="#EDAF7C" d="M178 969.8l-43.1 3.2-18.3 256.5h35.5m70.1-248.9l-12.9 259.7H247l20.4-259.7"/>
  <path fill="#FDF4F8" d="M250.2 1207.9l-40.9-1-1.1 29.1 40.9-1.1m-92.6-32.4h-39.9l-1.1 32.4h37.7"/>
  <path fill="#00E5FF" d="M299.8 650.8l-146.6-6.4-4.3 59.2-29.1 463.4 37.7 2.1 49.6-420.2 22.6-2.2-17.2 418.1 39.9 1.1"/>
  <path fill="#5D4137" d="M207.1 1233.8l43.1-2.2 1.1 62.5s79.7 22.6 90.5 24.8c12.9 3.2 21.6 18.3 22.6 25.9 1.1 5.4-3.2 10.8-8.6 10.8l-149.8-6.5c-4.3 0-7.5-3.2-6.5-7.5l7.6-107.8zm-51.7 1.1l-39.9-2.2-8.6 65.7s-72.2 20.5-84 23.7C10 1325.3 1.3 1340.4.3 1348c-1.1 5.4 3.2 10.8 8.6 10.8l136.8-6.5c4.3 0 7.5-3.2 6.5-7.5l3.2-109.9z"/>
  <path fill="#09ADB5" d="M209.3 1174.5l44.1 1.1 5.4-48.5-48.5-1.1m-93.7 48.5l45.2-1 4.3-50.7h-48.4"/>
  <path fill="#6D4D42" d="M329.9 308.2L143.5 581.9l-9.7-38.8 171.4-250m-194 934.2l46.3 1.1-1 11.9-45.3-1.1m94.8-8.6h46.4v10.7l-47.5 1.1"/>
  <path fill="#09ADB5" d="M264.2 672.4l29.1 49.6 3.2-28.1"/>
  <path fill="#5D4137" d="M150 616.4l-2.2-45.3-5.4-16.2-60.3 25.9 44.2-6.5c5.4-1.1 11.9 2.2 12.9 7.5l10.8 34.6z"/>
  <path fill="#E6A268" d="M157.5 1173.5l-1 15-36.7-7.5v-6.5m132.6 1.1l-1.1 12.9-39.9-5.3 1.1-8.7"/>
  <path fill="#09ADB5" d="M207.1 748.9l39.9-15.1-29.1 392.2h-4.3l16.1-379.3"/>
  <path fill="#8D6E63" d="M328.9 306L143.5 579.7l-10.8-38.8 171.4-250"/>
  <path fill="#444545" d="M269.6 405.2l2.2 81.9c0 5.4-4.3 10.8-9.7 10.8l-31.2 2.2c-5.4 0-10.8-4.3-11.9-9.7l-4.3-81.9c0-5.4 4.3-10.8 10.8-11.9l33.4-1.1c5.3-1.1 10.7 4.3 10.7 9.7z"/>
  <path fill="#EDAF7C" d="M198.5 490.3c5.4-5.4 12.9-21.6 19.4-23.7 5.4-2.2 52.8-4.3 56-1.1 3.2 3.2 1.1 35.6-4.3 40.9s-62.5 18.3-62.5 18.3"/>
  <path fill="#7CB342" d="M208.2 524.8C164 544.2 74.6 586.2 67 586.2c-16.2 0-6.5-45.3-6.5-45.3l140.1-51.7"/>
  <circle cx="242.7" cy="409.5" r="3.2" fill="#78909C"/>
  <path fill="#8D6E63" d="M147.8 662.7l154.1-1.1-1.1-31.2-150.8 3.2"/>
  <path fill="#6D4D42" d="M206 631.4v31.3l32.3 1.1 1.1-33.4"/>
  <path fill="#8BC34A" d="M350.4 330.8s64.7 208 60.3 224.1c-4.3 16.2-116.4 139-116.4 139L262 672.3l100.2-117.5c-14-105.6-34.5-134.7-42-197.2l30.2-26.8z"/>
  <path fill="#EDAF7C" d="M263.1 213.4s0 50.6-1.1 51.7c0 1.1 24.8 16.2 24.8 17.2 0 0-40.9 62.5-52.8 63.6-11.9 0-48.5-62.5-49.6-62.5l31.2-17.2 2.2-51.7 45.3-1.1z"/>
  <path fill="#E6A268" d="M218.9 215.5l-1.1 32.3c9.7 7.5 29.1 10.8 45.3 7.5 0-15.1 1.1-39.9 1.1-39.9h-45.3z"/>
  <path fill="#EDAF7C" d="M239.4 59.3c-61.4-1.1-83 17.2-83 62.5v35.6c0 46.3 36.6 77.6 81.9 77.6s81.9-31.2 81.9-77.6v-35.6c1.1-46.4-22.6-61.5-80.8-62.5z"/>
  <path fill="#E5AA78" d="M287.9 65.7c11.9 9.7 18.3 24.8 18.3 47.4v35.6c0 46.3-36.6 77.6-81.9 77.6-11.9 0-23.7-2.2-35.6-6.5 14 9.7 31.2 15.1 50.6 15.1 45.3 0 81.9-31.2 81.9-77.6v-35.6c.1-30.1-10.7-47.3-33.3-56zm33.4 62.5v35.6c9.7 0 17.2-7.5 17.2-17.2.1-10.8-7.5-18.4-17.2-18.4z"/>
  <path fill="#EDAF7C" d="M139.2 145.5c0 9.7 7.5 17.2 17.2 17.2v-35.6c-9.6 1.1-17.2 8.7-17.2 18.4z"/>
  <path fill="#5D4137" d="M293.3 30.2c-5.4 23.7-16.2 37.7-47.4 37.7S192 71.1 192 71.1c-17.2 1.1-28 17.2-26.9 37.7v21.6h-12.9v-41c1.1-10.8 4.3-21.6 9.7-30.2 4.3-8.6 9.7-16.2 16.2-22.6C208.2 5.4 296.5 0 296.5 0s-2.1 24.8-3.2 30.2z"/>
  <path fill="#4E352E" d="M245.9 66.8c26.9-1.1 42-12.9 47.4-37.7l1.1 1.1c2.2 1.1 4.3 3.2 6.5 5.4 6.5 7.5 11.9 14 16.2 22.6 4.3 9.7 7.5 19.4 8.6 30.2v39.9h-12.9v-21.6c0-31.2-17.2-40.9-36.6-40.9-12 1-30.3 1-30.3 1z"/>
  <path fill="#444445" d="M198.5 112.1c-16.2 0-29.1 12.9-29.1 29.1s12.9 29.1 29.1 29.1 29.1-12.9 29.1-29.1c0-15.1-13-28.1-29.1-29.1zm0 50.6c-11.9 0-20.5-9.7-20.5-20.5 0-11.9 9.7-20.5 20.5-20.5 11.9 0 20.5 9.7 20.5 20.5-.1 10.8-9.7 20.5-20.5 20.5zm81.9-50.6c-16.2 0-29.1 12.9-29.1 29.1s12.9 29.1 29.1 29.1 29.1-12.9 29.1-29.1c0-15.1-13-28.1-29.1-29.1zm-1.1 50.6c-11.9 0-20.5-9.7-20.5-20.5 0-11.9 9.7-20.5 20.5-20.5 11.9 0 20.5 9.7 20.5 20.5s-8.7 20.5-20.5 20.5z"/>
  <path fill="#444445" d="M238.3 123.9c-11.9 0-20.5 9.7-20.5 20.5h8.6c0-6.5 5.4-11.9 11.9-11.9s11.9 5.4 11.9 11.9h8.6c1.1-10.8-8.6-20.5-20.5-20.5z"/>
  <path fill="#0E9D58" d="M212.5 524.8l-25.9 8.6-18.3-33.4 30.2-9.7m-86.2 31.2l-43.1 16.2 47.4-32.3"/>
</svg>