<svg xmlns="http://www.w3.org/2000/svg" width="94.79" height="194.578">
  <ellipse cx="100.2" cy="296.4" rx="50.7" ry="4.8" transform="translate(-29.566 -32.7)" fill="#0c9d58"/>
  <path d="M73.134 55.9l-.6-5h-8.2l-1.3 8.1 2.4 8.9" fill="#eeb17d"/>
  <path d="M83.834 35.2c0 9.8-7.9 17.7-17.7 17.7-9.8 0-19.7-7.9-18.9-17.7l1.1-6.9c2.2-11.6 7.9-17.7 17.7-17.7 9.8 0 17.7 7.9 17.7 17.7v6.9z" fill="#eeb17d"/>
  <path d="M79.034 16.2c1.8 2.8 2.9 6.1 2.9 9.7v6.9c0 9.8-7.9 17.7-17.7 17.7-5.4 0-10.8-2.4-14.5-6.2 3.4 5.2 10 8.7 16.5 8.7 9.8 0 17.7-7.9 17.7-17.7v-6.9c0-4.7-1.9-9-4.9-12.2z" fill="#e6aa78"/>
  <circle r="1.4" cy="62.4" cx="97" transform="translate(-29.566 -32.7)" fill="#454545"/>
  <circle r="1.4" cy="62.4" cx="87" transform="translate(-29.566 -32.7)" fill="#454545"/>
  <path d="M44.034 54.2l-.5 15.8c0 1.1-.9 2-2 2h-6c-1.1 0-2.1-.9-2.1-2.1V54c0-1.1.9-2.1 2.1-2l6.5.1c1.1-.1 2.1.9 2 2.1z" fill="#454545"/>
  <circle r=".6" cy="87.4" cx="68.3" transform="translate(-29.566 -32.7)" fill="#78909c"/>
  <circle r="4.1" cy="65.3" cx="114.1" transform="translate(-29.566 -32.7)" fill="#eeb17d"/>
  <path d="M84.634 30.4c-.7 0-1.3.4-1.6.9.2-.1.4-.1.6-.1 1 0 1.8.8 1.8 1.8 0 .3-.1.6-.2.9.7-.3 1.2-.9 1.2-1.7.1-1-.8-1.8-1.8-1.8z" fill="#de9e78"/>
  <path d="M42.234 76.7c-.4-1.2.7-7.2-.1-8.1-.7-.8-7.9-4.9-8.6-4.6-.8.3-3 5.5-2.6 6.8.5 1.3 8.3 7.8 8.3 7.8" fill="#eeb17d"/>
  <path d="M73.234 245.3s3.4 16.4 2 16.6c-6.1.6-30 2.6-30.4 1.4-.4-1.2 2.1-3.5 15.5-8.6 5.2-2 5.6-8.5 5.6-8.5l7.3-.9zm6.7.3s-2.9 14.5-1.7 15.2c1.2.7 30.6 2.9 30.5 1.7-.4-6.3-16.5-8-18.5-9.2-2-1.2-3.8-7.5-3.8-7.5l-6.5-.2z" fill="#5d4137"/>
  <path d="M56.434 101.9c-3.1.6-3.8 1.1-6.3-2.6-2.6-3.7-11.1-20.7-11.1-20.7l3.2-1.8s12.3 17.5 12.9 18.8c.5 1.3 21-10.6 21-10.6 4.3-2.4 6.7-1.5 7.7-.6l.1.1c1.6 1.4 1.7 4.3-.6 6.2-9 4.6-21.1 9.7-26.9 11.2z" fill="#eeb17d"/>
  <path d="M49.034 129.5s21.8 5.6 36.6 3.3l1.6 113.4-7.9-.3-7.9-98-7.2-1.1 9.9 98.6-8.6.8-16.5-116.7z" fill="#d3d3d3"/>
  <path d="M63.034 59l2.7 8 7.4-11s11.9 8.9 13.7 16.3c1.8 7.4 8.1 36.2 8.1 36.2l-9.5 2.6s1.3 20.8 0 22.6c-13.2 2-30.3 1.3-39.2-3.4 0 0-1.7-16.5 6.3-26.2 0 0 0-21.3 1.4-28.2 1.5-7 6.8-15.7 9.1-16.9z" fill="#16964e"/>
  <path d="M85.534 111.1s-2.8 45-2.8 47.9c0 2.9-.1 7.5 3.2 9.3 3.3 1.8 8.5.7 7.2-1.4-1.3-2.1-5-6.8-5-8.9 0-2.1 5.7-49.1 5.7-49.1l-8.3 2.2z" fill="#eeb17d"/>
  <path d="M85.234 112.3l-4.7.9-1.6-29.3 3 27.6 3.6-.4" fill="#11512d"/>
  <path d="M69.634 44.7c-.1-4.4-3.7-7.9-8.2-7.9-4.4 0-8 3.5-8.2 7.9h16.4z" fill="#6d4d42"/>
  <circle r="3.3" cy="68.6" cx="90.9" transform="translate(-29.566 -32.7)" fill="#eeb17d"/>
  <path d="M80.534 246.5l-3.9-101.6-12.4 1.9 7.2 1.1 7.9 98.7" fill="#9d9d9d"/>
  <path d="M72.634 51.8s.2 1.9.4 3.2c-4.9 1.3-9.4-.2-9.4-.2l.3-2 8.7-1z" fill="#e6aa78"/>
  <path d="M17.438 0C4.838 0-4.556 13.188 2.344 26.688 5.044 31.887 10.63 35 16.53 35h1.907c.3 0 .488.112.688.313l4.594 5.28c.5.6 1.5.207 1.5-.593v-4.594c0-.5.318-.806.718-.906 10.7-2.1 17.906-13.906 11.906-25.906C35.244 3.194 29.53 0 23.53 0h-6.093z" fill="#16964e"/>
  <ellipse cx="49.7" cy="51.2" rx="11.7" ry="12.4" transform="translate(-29.566 -32.7)" fill="#3e2723"/>
  <path d="M16.22 26.688c-3.147 3.047-5.705 4.636-7.5 6.375C11.08 34.318 13.77 35 16.53 35h1.907c.3 0 .488.112.688.313l4.594 5.28c.5.6 1.5.207 1.5-.593v-4.594c0-.5.318-.806.718-.906 2.917-.573 5.55-1.896 7.75-3.72-2.048-2.528-4.883-4.093-7.97-4.093h-9.5z" fill="#fcb64e"/>
  <path d="M15.844 24.313v10.656c.23.008.455.03.687.03h.126l5.782-8.313v-2.375h-6.594z" fill="#af8778"/>
  <path d="M27.125 26.813L19.72 36l.75.844 7.874-9.75-1.22-.282z" fill="#f37046"/>
  <path d="M15.834 26.3s3.7.8 6.6-.2v-1.2h-6.6v1.4z" fill="#8e6f64"/>
  <path d="M26.434 20.7c0 5-7.2 4.3-7.2 4.3-4 0-7.2-.3-7.2-4.3V15c0-4 4.4-5.7 8.4-5.7l-1.2 4.6c4 0 7.2-1.1 7.2 2.9v3.9z" fill="#af8778"/>
  <path d="M26.534 16.9c0-2.2-1-2.8-2.5-3 .6.4 1 1.2 1 2.5v3.9c0 5-7.2 4.3-7.2 4.3-1.4 0-2.6 0-3.7-.2 1.3.6 3.2.7 5.2.7 0 0 7.2.6 7.2-4.3v-3.9z" fill="#8e6f64"/>
  <circle cx="44.9" cy="50.8" r=".7" transform="translate(-29.566 -32.7)" fill="#262626"/>
  <path d="M19.934 8.1c-4.6 0-8.4 3.8-8.4 8.4v.4l.2 1.4 5.1-7.7c3.5 7.8 9.1 7.9 10.7 7.8.1-.6.2-1.3.2-1.9.1-4.6-3.2-8.4-7.8-8.4z" fill="#3e2723"/>
  <path d="M16.134 20.1v.2c0 1.4 1.1 2.6 2.6 2.6s2.6-1.1 2.6-2.6v-.2h-5.2z" fill="#f9eed1"/>
  <circle cx="44.9" cy="50.8" r=".7" transform="translate(-23.233 -32.722)" fill="#262626"/>
</svg>