<svg xmlns="http://www.w3.org/2000/svg" width="411.6" height="521">
  <path fill="#F8A352" d="M65.9 352.6c1-12.6-2.9-24.9-9.7-39.2-17.3-36.1-38.6-39.8-39-53.3 0 0 1.7-12.2 19.9 4.4 13.9 12.6 46.5 50.4 46.7 94-.1-.1-18.5-6.3-17.9-5.9z"/>
  <path fill="#F9BF2C" d="M37.5 475.2c19.3-3.1 45.5-20.3 45.2-27-.4-7.3 11.6 12.9 61.2 13.9 48.4 1 57.5-10.8 64.3-10.8 6.9 0 22.6 4.4 32.8 11 19.5 12.6 40.4 6.9 38.4-4-1.9-11-39.4-14.9-39.4-14.9s12-11.8 22.8-39.4c10.8-27.8 20.8-60.6 10.8-66.4-9.9-6-29.7 49.4-29.7 49.4 6.2-28.6 2.1-58.3-18.7-127.4-7.3-24.2-16.2-43.2-24.9-57.3-23 12.2-33.6-14.5-60.2-19.3-5.6-.8-28-14.7-33.2-17.2-26.3 56.2-48.6 212-48.6 212s-26.8-50.2-33.6-32.6c-6.8 17.7 30.9 80.9 35.7 90.9 5.2 9.9-2.3 9.1-19.7 14.3-17.1 5.3-17.6 26.7-3.2 24.8z"/>
  <path fill="#F7923F" d="M127.7 296.6c-24.4 8.9-47.3 88-34 127.8 10.3 30.9 54.8 34.7 83.4 26.5 29.1-8.1 28.2-44.2 28.2-44.2-2.3-112-53.3-118.9-77.6-110.1z"/>
  <path fill="#F9A347" d="M176.4 313.8c7.5 61.9-1 175.5-1.5 178.8-1 8.5-11.6 14.9-4.2 24 5.2 6.6 20.6 5 24-.8 3.8-5.8-.2-20.1-1-24-2.5-12-3.6-14.9-1.3-65.9 2.3-50.8-5.8-106.2-5.8-106.2s-17.4-67.7-10.2-5.9zM122.9 301.3c-10.1 61.9-9.9 184.9-8.7 188 1.2 3.1 10.3 7.9 5.2 15.4-4.8 6.9-20.8 4.4-24-1.9-3.6-6.2 2.5-11.8 6.4-13.1 3.8-1.3-.4-25.7-.2-76.8 0-51 10.8-106 10.8-106s20.7-66.9 10.5-5.6zM209 451.2c2.3 0 4.2.8 7.7.8 7.3-8.1 18.1-20.3 23.6-29.9 9.3-16.2 23.6-53.9 3.6-16.6-12.2 22.4-25.9 37.3-34.9 45.7zm-133.6-7.3c3.1 3.6 4.4 5.4 6.4 7.7 1-1 1.3-1.3 2.1-3.1.2-.6.8-1.9 1-2.1-6.2-5.8-16.4-16.8-27.4-38.4-18.2-34.9 1.8 17.7 17.9 35.9z"/>
  <path fill="#E1E1E1" d="M209.5 208.6s-94.8-56.2-101.7-42.7c-6.8 13.5-12 33.2-12 33.2 17.9 20.6 76.8 35.1 118.5 28.2l-4.8-18.7z"/>
  <path fill="#6DCBD6" d="M296 180.4c3.3-5 9.3-14.3 15.6-16.8 4.2 2.1 9.7.8 13.1 5.2 1 1 3.3 2.3.8 3.6-12.4 6.6-23.4 15.4-36.3 21.2 3.2-6.2 4.3-8.6 6.8-13.2z"/>
  <path fill="#7ED0DF" d="M344.9 151.2c-8.9 9.7-45 35.1-72 46.7-26.8 11.6-64.9 30.3-52.9 60 11.4 28.2 45.7 14.7 56.2 8.1 12.4-7.7 34.5-18.1 45.2-22.8 10.8-5.2 28.6-10.8 28.6-10.8 30-18.6 3.7-91.2-5.1-81.2z"/>
  <path fill="#ACDFE6" d="M326.9 168.6c-7.1 7.5-38.1 25.9-58.9 34.9-20.8 8.7-50 23.2-40.9 46.1 8.7 21.6 33.8 12.6 42.5 9.1 8.7-3.5 21.4-11.4 29.9-15.4 8.3-4 28.8-10.8 28.8-10.8 23.1-14.4 5.6-71.4-1.4-63.9z"/>
  <path fill="#C8E9EE" d="M311.6 163.4c-5.4 3.3-9.1 7.9-11.6 11.2-1.5 1.5-5.2 7.7-6.2 11.2 3.1-5 11-16.4 17.2-18.9 2.9-1 5.6-1.7 8.7-.8 3.1.6 5.6 3.6 7.9 5.8 6.9 7.7 9.5 17.9 9.9 27.8.2 6.2-.8 23.6-27.2 48.6 0 0 60.6-13.7 82.1-33.6 13.7-12.4 22-32.4 18.5-51.8-7.5-28.4-29.9-29.9-58.7-17.9-1 .3-32.8 12.6-40.6 18.4z"/>
  <path fill="#455B65" d="M216.3 6.7C245.8-8.2 264 2.1 274.6 33c4.2 11.4-1.3 18.3-14.1 18.7-11 .4-21.4-2.7-32-4.2-28.6-7.1-30.9-5.6-36.1 22.6-1 5.6-1.3 11.2-2.1 16.8-2.5-.4-5.2-.6-7.7-.8-2.8-32-.7-62.3 33.7-79.4zM242.1 232.5c37.1 5 68.2.8 73.5-6.6 6-8.5-8.9-37.1-33.2-67.8-29.8 13-42.4 43.9-40.3 74.4z"/>
  <path fill="#FBE7B1" d="M182.1 216.5c19.9 8.3 40.9 13.5 60.4 16-1.3-16.8 2.1-33.4 9.9-47.5-21.4-12.9-48.2-16.4-66.4 2.1-6.8 9.5-7.1 19.6-3.9 29.4z"/>
  <path fill="#F8BD3D" d="M118.6 171.3c16.2 21 39 35.9 63.3 45.9-3.3-9.9-2.7-20.1 4.2-29.7 18.3-18.5 45.2-14.9 66.4-2.1 6.6-11.8 16.4-21.4 29.9-27.2-22-28.2-52-58.1-80.7-75.8-58.4-36-137.5 17.5-83.1 88.9z"/>
  <path fill="#748991" d="M268 179.2c3.6-5.2 10.8-9.7 10.8-9.7 17.7 22.8 29.7 46.7 29.7 46.7-24.7-30.4-40.5-37.2-40.5-37z"/>
  <path fill="#455B65" d="M176.4 146.3v-.2c0-6.6-5.4-12-12-12s-12 5.4-12 12v.2h24zM52.4 110.5c-9.5 4.2-19.1 3.1-28.2 0-25.3-8.3-32.4-32.8-13.5-50.6C29.4 42 52.4 30.4 78.5 27.1c11.8-1.5 23 2.3 27.6 13.1 7.5 16.8 14.7 33.4 26.3 48.4 5.8 7.7-1.3 10.1-6.4 5.6-56.2-75.2-48.3-1.8-73.6 16.3z"/>
  <circle cx="216.3" cy="200.5" r="3.6" fill="#455B65"/>
  <circle cx="203.6" cy="193.3" r="3.1" fill="#455B65"/>
  <circle cx="228.8" cy="204.7" r="4.2" fill="#455B65"/>
  <circle cx="221.9" cy="189.3" r="2.5" fill="#455B65"/>
  <path fill="#455B65" d="M209.5 207.6c-2.7-.4-5.4 1.5-5.8 4-.4 2.7 1.5 5.4 4 5.8 2.7.4 5.4-1.5 5.8-4 .6-2.7-1.1-5.2-4-5.8z"/>
</svg>