<svg xmlns="http://www.w3.org/2000/svg" width="410.9" height="470">
  <ellipse ry="20.4" rx="198.3" cy="1064.1" cx="303" fill="#1a9c5e"/>
  <path fill="#efb39d" d="M220.1 677.3l-1.3-234.4 61.3 73.2-26.4 156.6"/>
  <path fill="#f0a286" d="M219.2 533.5V548l54.1 13.2 2.9-19.6"/>
  <path d="M196.7 768.4l37 212.3 2.1 20.4 6.4 46.4 20.4-5.1-22.5-62.5L255 671l-34.5 6-18.3 40.4c-6.8 16.5-8.9 34-5.5 51z" fill="#efb39d"/>
  <path fill="#fabaa4" d="M329 271l-3.8-60.4-19.6 7.2 1.3 54.5"/>
  <path d="M306.4 238.3l-.4-23.4 20-1.3.9 18.3c-9.8 5.9-20.5 6.4-20.5 6.4z" fill="#f4b39d"/>
  <path fill="#fabaa4" d="M269.4 707.1l124.3-208.5-82.2 6-78.2 191"/>
  <path fill="#f0a286" d="M295.4 544.6l-9.4 21.3 56.2 17.8 11.9-18.7"/>
  <circle r="30.6" cy="336.1" cx="271.1" fill="#ef4481"/>
  <path d="M308.1 50.2c0 9.8 3 18.3 9.8 24.7 6.8 6.8 14.9 10.6 24.3 10.6 4.7 0 8.9-.4 13.2-2.1 4.3-1.7 8.1-4.3 11.9-7.7l.9-.9 30.6-29.4-17.4-.4 15.2-45L357 11.5l-20.8 6c-2.1.4-3.8.9-5.5 1.7-4.3 1.7-8.1 4.3-11.5 7.7-6.4 6.3-10.2 14.4-11.1 23.3z" fill="#dc3326"/>
  <path d="M141.8 224.2l24.7 1.3c4.7.4 8.1 4.3 7.7 8.5l-3.4 60.4c-.4 4.3-4.3 7.7-8.5 7.2l-23-1.3c-4.3-.4-7.2-3.8-7.2-8.1l1.7-60.4c1.2-4.6 4.2-8 8-7.6z" fill="#454545"/>
  <path d="M181.4 320.4s-42.1-10.2-46.4-14c-4.3-3.8-6-27.7-3.4-30.2 2.6-2.6 37-.9 41.3.9 5.1 2.1 12.3 26.4 16.2 30.2" fill="#fabaa4"/>
  <circle r="2.1" cy="234.9" cx="154.5" fill="#78909c"/>
  <path d="M218.8 449.7c1.3 48.9 40.4 89.3 89.3 92.3 55.3 3.8 101.3-29.8 101.3-84.7 0-18.7-27.2-145.1-37.4-186.8-2.1-8.9-9.4-12.3-18.3-12.3l-59.6 10.2c-10.6 2.6-14.5 3.4-16.6 13.2l-18.7 85.5-1.3 3.4c-25.5 18-39.6 44.8-38.7 79.2z" fill="#ef4481"/>
  <path fill="#be71ae" d="M360 1069.6l52.4-5.1 7.6-33.6 11.1-8.1-3.4-17.4-7.7-2.2-11.4 47.3-20 1.7M292 1060.3l-56.2-3.4-5.5-30.3-7.7-7.2 2.2-11 6.8-7.3 10.2 46.8 24.6-5.1"/>
  <path d="M227.7 715.6c2.1 9.4 170.6 294.4 170.6 294.4l-5.1 42.5 15.7-1.7 7.7-47.2-12.8-8.9S348.1 802.8 333.6 762c-11.5-31.9-64.2-55.3-64.2-55.3l-35.7-11.1c-.4 0-7.7 11.1-6 20z" fill="#fabaa4"/>
  <path d="M192.4 531.4c23.8 4.7 85.1 8.5 196.6 57.4 30.2-88.9 20.4-131.9 20.4-131.9l-184.7-44.7c.1-.3-26.8 41.3-32.3 119.2z" fill="#6e60aa"/>
  <path d="M237.1 160.8c8.5 34.5 34.5 60.4 71.5 60.4 41.7 0 75.7-33.2 77.9-74.5l-22.5-9.4-27.2-49.4c-32.5 72.9-84.4 73.8-99.7 72.9z" fill="#fabaa4"/>
  <path d="M237.1 160.8c8.5 34.5 34.5 60.4 71.5 60.4 3.4 0 6.4-.4 9.8-.9-31.9-4.3-59.1-43-62.1-60.8-8.1 1.3-15.4 1.3-19.2 1.3z" fill="#f4b39d"/>
  <path d="M227.7 148.1c0 6.8.9 13.2 2.1 19.6 17 1.3 72.8-.4 108.5-78.3l34.5 64.7 19.1-1.3v-4.3c0-46.4-37.4-84.2-84.2-84.2-46.8-.5-80 37.4-80 83.8z" fill="#ee4223"/>
  <circle r="6" cy="147.6" cx="334.1" fill="#3f2723"/>
  <circle r="14.9" cy="154.9" cx="381.7" fill="#fabaa4"/>
  <circle r="12.3" cy="255.7" cx="334.5" fill="#fef5f9"/>
  <circle r="11.5" cy="269.3" cx="317.9" fill="#fef5f9"/>
  <circle r="9.4" cy="262.1" cx="300.1" fill="#fef5f9"/>
  <path d="M369.8 281.2c5.1-11.5-.9-22.1-9.8-24.3h-.4c-5.5-1.7-16.6-.4-27.7 17 0 0-54.9 83.4-59.1 79.6-4.3-3.8-83.8-46.4-83.8-46.4l-8.9 13.2s64.2 48.1 80.8 57.4c16.6 9.4 18.3 6 28.5-2.1 19.6-16.9 55.3-59.1 80.4-94.4z" fill="#fabaa4"/>
  <path d="M282.6 181.2c-1.3 4.7 3.8 10.6 8.9 10.6 5.1 0 11.1-4.7 9.8-9.8l-8.9-25.1-9.8 24.3z" fill="#f0a286"/>
  <path fill="#ede6f3" d="M394.5 1010.1L265.2 787.5l72.7-36.1 70.2 243.8 12.8 8.5-9.8 51.9-22.1-3M190.3 783.7l43.4 197.4-2.1 20 10.2 46.8 24.6-5.1-22.1-62.5 13.2-191.5"/>
  <path d="M388.6 154.9c0 3.4-2.1 6-5.1 7.2.4-1.3.9-2.6.9-3.8 0-4.3-3.4-7.7-7.7-7.7-.9 0-1.7 0-2.6.4 1.3-2.1 3.8-3.8 6.8-3.8 4.3 0 7.7 3.4 7.7 7.7z" fill="#f0a286"/>
  <path d="M220.5 419.5c2.1-4.3 4.3-8.1 4.3-8.1l184.7 45.1c-.1 0-189.4-35.3-189-37z" fill="#ac6cad"/>
  <path d="M6.1 153.2c6.8 13.6 21.3 21.7 36.2 21.7H112c.4 0 1.3.4 1.7.9l11.9 14c1.3 1.7 3.8.9 3.8-1.3v-11.9c0-.9.4-2.1 1.7-2.1 27.2-5.5 46-35.7 30.2-66.8-6.8-13.6-21.3-22.1-36.6-22.1h-80c-32.3-.1-56.5 34-38.6 67.6z" fill="#6e61a8"/>
  <path d="M63.13 114.515v4.258c-1.657-.792-3.22-1.383-4.69-1.772-1.47-.388-2.89-.583-4.26-.583-2.377 0-4.215.46-5.512 1.384-1.282.923-1.924 2.234-1.924 3.935 0 1.427.425 2.508 1.276 3.243.864.72 2.493 1.304 4.885 1.75l2.638.54c3.257.62 5.656 1.716 7.198 3.287 1.558 1.556 2.336 3.646 2.336 6.27 0 3.126-1.052 5.497-3.156 7.11-2.09 1.615-5.16 2.423-9.21 2.423-1.527 0-3.156-.173-4.885-.52-1.715-.345-3.495-.857-5.34-1.534v-4.497c1.773.995 3.51 1.744 5.21 2.25 1.7.503 3.373.755 5.016.755 2.494 0 4.418-.49 5.773-1.47 1.354-.98 2.032-2.378 2.032-4.194 0-1.585-.49-2.824-1.47-3.718-.966-.893-2.558-1.564-4.778-2.01l-2.66-.52c-3.256-.648-5.612-1.664-7.068-3.047-1.456-1.384-2.184-3.308-2.184-5.772 0-2.853 1-5.1 3.005-6.744 2.018-1.643 4.793-2.464 8.323-2.464 1.514 0 3.056.137 4.627.41 1.57.274 3.177.685 4.82 1.233M71.886 113.455h6.507l8.236 21.964 8.278-21.965h6.507v32.276h-4.258v-28.34l-8.323 22.136h-4.388l-8.323-22.136v28.34h-4.237v-32.275M129.454 114.515v4.258c-1.658-.792-3.22-1.383-4.69-1.772-1.47-.388-2.89-.583-4.26-.583-2.378 0-4.216.46-5.513 1.384-1.28.923-1.923 2.234-1.923 3.935 0 1.427.426 2.508 1.276 3.243.865.72 2.493 1.304 4.885 1.75l2.638.54c3.257.62 5.656 1.716 7.198 3.287 1.557 1.556 2.335 3.646 2.335 6.27 0 3.126-1.053 5.497-3.157 7.11-2.09 1.615-5.16 2.423-9.21 2.423-1.527 0-3.155-.173-4.885-.52-1.715-.345-3.495-.857-5.34-1.534v-4.497c1.773.995 3.51 1.744 5.21 2.25 1.7.503 3.373.755 5.016.755 2.493 0 4.417-.49 5.772-1.47 1.354-.98 2.032-2.378 2.032-4.194 0-1.585-.49-2.824-1.47-3.718-.966-.893-2.558-1.564-4.778-2.01l-2.66-.52c-3.256-.648-5.612-1.664-7.068-3.047-1.455-1.384-2.183-3.308-2.183-5.772 0-2.853 1-5.1 3.004-6.744 2.017-1.643 4.792-2.464 8.323-2.464 1.513 0 3.055.137 4.626.41 1.57.274 3.178.685 4.82 1.233" fill="#fff"/>
</svg>