<svg xmlns="http://www.w3.org/2000/svg" width="411" height="466">
  <ellipse cx="332.3" cy="448.8" fill="#959693" rx="78.7" ry="8.1"/>
  <path fill="#EFB39D" d="M365.8 202.4l-.5 93-13.4-1.9-10.6-62.3"/>
  <path fill="#F0A286" d="M365.6 244.1v-5.8l-22.6 3.2 1.2 7.6"/>
  <path fill="#EFB39D" d="M372.2 311.2l-7.3-16-13.7-2.4 5.9 122.5-8.9 24.8 8.1 2 2.5-18.4.8-8.1 14.7-84.2c1.4-6.8.6-13.6-2.1-20.2z"/>
  <path fill="#FABAA4" d="M323.4 110.2l-1.5 24 8.9.5.5-21.6"/>
  <path fill="#F4B39D" d="M322.9 118.5l.3-7.3 7.9.5-.1 9.3s-4.2-.1-8.1-2.5z"/>
  <path fill="#FABAA4" d="M296.4 224.5l49.3 82.5 14.2-4.5-30.9-75.6"/>
  <path fill="#F0A286" d="M338.9 251l-3.7-8.3-23.1 8 4.5 7.5"/>
  <circle cx="345" cy="159.8" r="12.2" fill="#F06392"/>
  <path fill="#F05323" d="M325.8 37.1c-1.4-1.4-2.9-2.4-4.6-3-.7-.3-1.4-.5-2.2-.7l-8.3-2.4-15.7-4.5 6.1 17.9-6.9.2 12.2 11.6.3.3c1.5 1.4 3 2.4 4.7 3 1.7.7 3.4.8 5.2.8 3.9 0 7.1-1.5 9.6-4.2 2.7-2.7 3.9-6.1 3.9-9.8-.1-3.3-1.6-6.5-4.3-9.2z"/>
  <path fill="#454545" d="M399.2 118.5l.7 24c0 1.7-1.2 3-2.9 3.2l-9.1.5c-1.7.2-3.2-1.2-3.4-2.9l-1.4-24c-.2-1.7 1.2-3.2 3-3.4l9.8-.5c1.8.1 3.1 1.4 3.3 3.1z"/>
  <path fill="#FABAA4" d="M377.6 148.5c1.5-1.5 4.4-11.1 6.4-12 1.7-.7 15.4-1.4 16.4-.3 1 1 .3 10.5-1.4 12s-18.4 5.6-18.4 5.6"/>
  <circle cx="391.1" cy="119.7" r=".8" fill="#78909C"/>
  <path fill="#F06392" d="M350.2 173.5l-.5-1.4-7.4-33.9c-.8-3.9-2.4-4.2-6.6-5.2l-23.6-4.1c-3.5 0-6.4 1.4-7.3 4.9-4.1 16.5-14.9 66.7-14.9 74.1 0 21.8 18.2 35.1 40.2 33.6 19.4-1.2 34.9-17.2 35.4-36.6.6-13.5-5.1-24.3-15.3-31.4z"/>
  <path fill="#BE71AE" d="M285.8 424.7l-3.1.8-1.3 6.8 4.4 3.2L289 449l20.7 1.8-11.5-6.7-7.7-.7m70-19.6l2.9 2.9.8 4.4-3 2.7-2.4 12.1-22.2 1.4 10.3-7.1 9.6 2.2"/>
  <path fill="#FABAA4" d="M359.9 302.5l-14.2 4.4s-20.9 9.3-25.5 21.9c-5.9 16.2-27.9 92.3-27.9 92.3l-5.1 3.5 3 18.7 6.2.7-2-16.9s66.8-113.1 67.7-116.8c.8-3.4-2.2-7.8-2.2-7.8z"/>
  <path fill="#6E60AA" d="M363.4 190.1l-73.3 17.7s-4.1 17 8.1 52.3c44.2-19.4 68.4-20.9 78-22.8-2.3-30.7-12.8-47.2-12.8-47.2z"/>
  <path fill="#FABAA4" d="M318.7 61.4L307.9 81l-8.9 3.7c.8 16.4 14.3 29.5 30.9 29.5 14.7 0 25.1-10.1 28.4-24-6 .6-26.5.1-39.6-28.8z"/>
  <path fill="#F4B39D" d="M350.7 90c-1.2 7.1-11.8 22.4-24.6 24.1 1.4.2 2.5.3 3.9.3 14.7 0 25.1-10.1 28.4-24-1.6.1-4.5.1-7.7-.4z"/>
  <path fill="#F37046" d="M330.7 51.8c-18.6 0-33.4 15-33.4 33.4v1.7l7.6.5 13.7-25.7c14 30.9 36.3 31.6 43 31.1.5-2.5.8-5.1.8-7.8-.2-18.2-13.3-33.2-31.7-33.2z"/>
  <circle cx="319.9" cy="85.1" r="2.4" fill="#3F2723"/>
  <circle cx="300.9" cy="87.9" r="5.9" fill="#FABAA4"/>
  <circle cx="319.7" cy="128.1" r="4.9" fill="#FEF5F9"/>
  <circle cx="326.4" cy="133.5" r="4.6" fill="#FEF5F9"/>
  <circle cx="333.5" cy="130.6" r="3.7" fill="#FEF5F9"/>
  <path fill="#FABAA4" d="M337.6 175.4c4.2 3.2 4.9 4.6 11.3.8 6.8-3.7 32.1-22.8 32.1-22.8l-3.5-5.2s-31.6 16.9-33.3 18.4c-1.7 1.5-23.5-31.6-23.5-31.6-4.6-6.9-8.9-7.4-11-6.8h-.2c-3.5 1-5.9 5.2-3.9 9.6 10 14.4 24.4 31.2 32 37.6z"/>
  <path fill="#F0A286" d="M336.4 88.8l-3.5 10c-.5 2 1.9 3.9 3.9 3.9s4.1-2.4 3.5-4.2l-3.9-9.7z"/>
  <path fill="#EDE6F3" d="M285.4 424.8l5.3-3.5 27.6-96.7 29.1 14.5-51.3 88.3 2 16.9-8.6 1.1m57.4-5.2l9.6 2.2 4-18.6-.8-8.1 17.2-78.1-26.5 1.8 5.1 76"/>
  <path fill="#F0A286" d="M301.3 84.9c1.2 0 2.2.7 2.7 1.5-.3-.2-.7-.2-1-.2-1.7 0-3 1.4-3 3 0 .5.2 1 .3 1.5-1.2-.5-2-1.5-2-2.9-.1-1.5 1.3-2.9 3-2.9z"/>
  <path fill="#AC6CAD" d="M290.1 207.8l73.3-17.9s.8 1.5 1.7 3.2c.2.5-75 14.7-75 14.7z"/>
  <ellipse cx="84.7" cy="456.2" fill="#959693" rx="84.7" ry="8.1"/>
  <path fill="#EEB17D" d="M81.5 100.3l-1 8.4 12.8 20.1 4.1-15-2.2-13.5M62.8 73.9V62.5C62.8 46.1 76 33 92.3 33c16.4 0 26 10.1 29.5 29.5l1.9 11.5c1.4 16.4-15.2 29.5-31.6 29.5-16.3.1-29.5-13-29.3-29.6z"/>
  <path fill="#E6AA78" d="M62.5 62.6v11.5c0 16.4 13.2 29.5 29.5 29.5 10.8 0 21.9-5.9 27.7-14.5-6.2 6.4-15.2 10.3-24.3 10.3-16.4 0-29.5-13.2-29.5-29.5V58.4c0-6.1 1.9-11.5 4.9-16.2-5.1 5.4-8.3 12.7-8.3 20.4z"/>
  <circle cx="90.1" cy="64.8" r="2.4" fill="#454545"/>
  <circle cx="106.8" cy="64.8" r="2.4" fill="#454545"/>
  <path fill="#454545" d="M132.5 102.3l10.8-.2c2-.2 3.5 1.5 3.5 3.4V132c0 2-1.7 3.5-3.5 3.5h-10c-1.9 0-3.4-1.5-3.4-3.4l-.8-26.5c-.1-1.8 1.5-3.5 3.4-3.3z"/>
  <circle cx="138.1" cy="106.7" r="1" fill="#78909C"/>
  <circle cx="61.4" cy="69.7" r="6.9" fill="#EEB17D"/>
  <path fill="#DE9E78" d="M58.2 69c0 1.4.8 2.4 2 2.9-.2-.5-.3-1-.3-1.5 0-1.7 1.4-3 3-3 .3 0 .7 0 1 .2-.5-.8-1.5-1.5-2.7-1.5-1.6-.1-3.1 1.2-3 2.9z"/>
  <path fill="#EEB17D" d="M137.2 146.7s13-10.8 13.8-13c.7-2.2-3-10.8-4.4-11.3-1.2-.5-13.2 6.4-14.3 7.8-1.4 1.5.5 11.5-.2 13.5"/>
  <path fill="#5D4137" d="M92.5 426.9s.7 10.8 9.3 14.2c22.4 8.6 26.7 12.3 26 14.3S87.1 454 77 453c-2.4-.3 3.4-27.7 3.4-27.7l12.1 1.6zm-34.3-.7s-3 10.5-6.4 12.5-30.2 4.9-30.9 15.4c-.2 2 48.9-1.7 51-2.9S69 425.7 69 425.7l-10.8.5z"/>
  <path fill="#EEB17D" d="M63.5 166.8c-3.9-3.2-3.7-8.1-1-10.3l.2-.2c1.7-1.5 5.7-3 12.8 1 0 0 34.3 19.9 35.1 17.7 1-2.2 21.6-31.4 21.6-31.4l5.4 3S123.4 175 119 181.2c-4.2 6.2-5.4 5.4-10.5 4.4-9.8-2.5-30-11.1-45-18.8z"/>
  <path fill="#D3D3D3" d="M93.2 426.9l-14.3-1.4 16.5-164.9-12 1.9-13.2 163.9-13.2.5 2.7-189.7c24.8 3.9 61.3-5.6 61.3-5.6L93.2 426.9z"/>
  <path fill="#16964E" d="M112.6 142.1c2.4 11.5 2.4 47.1 2.4 47.1 13.3 16.2 10.5 43.9 10.5 43.9-14.9 7.9-43.5 9.1-65.5 5.7-2.2-3 0-37.8 0-37.8l-15.9-4.4s10.5-48.1 13.5-60.6c3-12.3 23-27.3 23-27.3l12.3 18.4 4.6-13.3c3.8 2 12.6 16.5 15.1 28.3z"/>
  <path fill="#EEB17D" d="M45.9 197.3s9.5 78.7 9.5 82.2-6.2 11.3-8.4 14.9c-2.2 3.5 6.6 5.4 12 2.4 5.6-3 5.4-10.6 5.4-15.5s-4.7-80.2-4.7-80.2l-13.8-3.8z"/>
  <path fill="#11512D" d="M68.2 204.4l-7.9-1.5-.5-1.9 6 .7 5.1-46.2"/>
  <path fill="#6D4D42" d="M113.8 90c-.3-7.4-6.2-13.2-13.7-13.2S86.6 82.7 86.4 90h27.4z"/>
  <circle cx="100.3" cy="75.1" r="5.6" fill="#EEB17D"/>
  <path fill="#9D9D9D" d="M74.6 257.6l-6.4 169.8 2 .1 13.2-165 12-1.9"/>
  <path fill="#E6AA78" d="M95.9 103.5l.5 3.4s-7.6 2.5-15.7.3c.3-2.2.7-5.4.7-5.4l14.5 1.7z"/>
  <ellipse cx="227.7" cy="457.9" fill="#959693" rx="95.9" ry="8.1"/>
  <path fill="#FABAA4" d="M207.8 87.4l-.2 4.6 9.6 32.4 12.7-33.3-1-6.5"/>
  <path fill="#5D4137" d="M222 424.8s3.7 31.7 1 31.9c-11.8 1-61.9 5.1-62.8 2.7-.8-2.4 4.1-6.9 30.2-16.9 10.1-3.9 10.8-16.7 10.8-16.7l20.8-1zm8.6.4s-3.5 28.2-1.2 29.4c2.4 1.4 63.3 6.1 63.1 3.5-.8-12.2-32.2-15.5-36.1-17.9-3.9-2.4-7.4-14.7-7.4-14.7l-18.4-.3z"/>
  <path fill="#5981C1" d="M185.2 241L196 430.2l25.8.4-8.5-153.8 11.4.5 3.7 151.8 25.3.8-3.7-187.4"/>
  <path fill="#F37046" d="M241.9 99.8l32.2 14.7c7.3 3.9 7.9 14.5 8.1 19.9.3 11.8.5 25.1-2.5 31.6-4.2 9.3-18.6 28.4-18.6 28.4l-10 45.7-31.4 1.5-33.6-3.2-12.5-45.9h-14.3c-3 0-7.3-5.6-6.8-9.5l4.6-53c.2-8.1 2.7-12.5 9.5-16.4l28.4-16 8.6-9.5 9.3 4.4 4.7 33.9 5.2-34.1 10.8-3.2 8.3 10.7z"/>
  <path fill="#F05323" d="M212.5 92.5l-6.9 13.7-10.8-8.6 8.6-9.5m18.9 4.2l7.9 14.7 11.7-7.2-8.8-10.7m19.9 63.8l5.2-4.4-1.5-13.5"/>
  <path fill="#8D6E63" d="M186 245.4l65.3.2.5-9.3-66.3-.3"/>
  <path fill="#5981C1" d="M195.1 235.3h2.5v11.3h-2.5zm40.9 0h2.5v11.3H236z"/>
  <path fill="#F05323" d="M222.3 92.3l-5.2 34.1.1 109.2 2.7-.1-.1-109.4 4.7-31.1"/>
  <path fill="#FABAA4" d="M184.8 165.6L173 192.9l76.3-2-1-15.2"/>
  <path fill="#FABAA4" d="M247.4 185.8l2.7-30.3-42.2-3.6-6.2 12"/>
  <path fill="#F05323" d="M249.3 153.8l3.7-.9 7.4 42.1-13.6-2.2m-64.7-29.6l3.4 1.2-13.2 30.6-14.1-1.2"/>
  <path d="M200.2 120.2l-1 27.3c0 1.9-1.7 3.4-3.5 3.4h-10.3c-2 0-3.5-1.5-3.5-3.5v-27.5c0-2 1.7-3.5 3.5-3.5l11.1.2c2.2 0 3.7 1.6 3.7 3.6z"/>
  <circle cx="191.1" cy="121.2" r="1" fill="#78909C"/>
  <path fill="#FABAA4" d="M207.9 151.9l-12.8-10.8-13.1-.2-3.8 9.7 3.2 8.4 20.3 4.9"/>
  <path fill="#F2A488" d="M214.7 170.5l32.6 14.8-.4 5.1"/>
  <path fill="#F5BF24" d="M227.2 240.5c0 3.5-2.9 6.4-6.4 6.4h-4.4c-3.5 0-6.4-2.9-6.4-6.4 0-3.5 2.9-6.4 6.4-6.4h4.4c3.5 0 6.4 2.9 6.4 6.4z"/>
  <circle cx="216.9" cy="3.9" r="3.9" fill="#F05323"/>
  <path fill="#FABAA4" d="M242.7 50.1c0 14.7-12 26.8-26.8 26.8-14.7 0-27.7-8.4-26.7-23.3l.2-13.7c1.7-17.9 11.6-26.8 26.5-26.8 14.7 0 26.8 12 26.8 26.8v10.2z"/>
  <circle cx="245.1" cy="45.1" r="6.2" fill="#FABAA4"/>
  <path fill="#F2A488" d="M245.2 41.9c-1 0-1.9.5-2.4 1.4.3-.2.7-.2.8-.2 1.5 0 2.7 1.2 2.7 2.7 0 .5-.2.8-.3 1.4 1-.3 1.9-1.4 1.9-2.5.2-1.5-1.1-2.8-2.7-2.8z"/>
  <path fill="#5D4137" d="M241.9 32.4S261 95 207.6 90.3c-28.7-2.5-21.3-36-18.1-37.6 3.2-1.7 41 1.5 43.4.3s3-20.3 3-20.3l6-.3z"/>
  <circle cx="207.3" cy="53.2" r="5.1" fill="#FABAA4"/>
  <path fill="#F37046" d="M191.6 28.7c.3-13.7 11.5-25 25.5-25 13.8 0 25.1 11 25.5 25h-51z"/>
  <path fill="#F05323" d="M188.7 28.5c0-2.2.2-4.1 2.5-4.1h51.3c2.2 0 2.5 1.9 2.5 4.1 0 2.2-.2 4.1-2.5 4.1h-51.3c-2.3 0-2.5-1.9-2.5-4.1z"/>
  <path fill="#5D4137" d="M214.7 32.6s-5.4 10.3-25 9.1c-19.6-1.2 1.2-9.1 1.2-9.1h23.8z"/>
  <circle cx="222" cy="43.4" r="2.5" fill="#454545"/>
  <path fill="#4070B7" d="M214.2 274.3l17.9-6.3 3 158.7-5.9-.2-3.7-151.7"/>
</svg>
